<?xml version="1.0" encoding="UTF-8"?>
<svg xmlns="http://www.w3.org/2000/svg" xmlns:xlink="http://www.w3.org/1999/xlink" width="93px" height="25px" viewBox="0 0 92 25" version="1.1">
<g id="surface1">
<path style=" stroke:none;fill-rule:nonzero;fill:rgb(6.666667%,6.666667%,5.882353%);fill-opacity:1;" d="M 17.941406 10.667969 L 10.257812 10.667969 C 10.0625 10.667969 9.902344 10.832031 9.902344 11.03125 L 9.902344 14.816406 C 9.902344 15.015625 10.0625 15.179688 10.257812 15.179688 L 13.257812 15.179688 L 13.257812 19.882812 C 13.257812 19.882812 12.582031 20.113281 10.722656 20.113281 C 8.527344 20.113281 5.460938 19.304688 5.460938 12.507812 C 5.460938 5.710938 8.65625 4.816406 11.652344 4.816406 C 14.246094 4.816406 15.363281 5.277344 16.074219 5.496094 C 16.300781 5.566406 16.503906 5.34375 16.503906 5.144531 L 17.363281 1.484375 C 17.363281 1.390625 17.332031 1.277344 17.226562 1.203125 C 16.9375 0.992188 15.171875 0 10.722656 0 C 5.59375 0 0.335938 2.199219 0.335938 12.773438 C 0.335938 23.347656 6.355469 24.925781 11.433594 24.925781 C 15.632812 24.925781 18.183594 23.113281 18.183594 23.113281 C 18.289062 23.054688 18.300781 22.90625 18.300781 22.839844 L 18.300781 11.03125 C 18.300781 10.832031 18.140625 10.667969 17.941406 10.667969 Z M 57.503906 1.324219 C 57.503906 1.121094 57.347656 0.960938 57.148438 0.960938 L 52.824219 0.960938 C 52.625 0.960938 52.464844 1.121094 52.464844 1.324219 C 52.464844 1.324219 52.464844 9.75 52.464844 9.75 L 45.722656 9.75 L 45.722656 1.324219 C 45.722656 1.121094 45.566406 0.960938 45.367188 0.960938 L 41.042969 0.960938 C 40.847656 0.960938 40.683594 1.121094 40.683594 1.324219 L 40.683594 24.140625 C 40.683594 24.34375 40.847656 24.507812 41.042969 24.507812 L 45.367188 24.507812 C 45.566406 24.507812 45.722656 24.34375 45.722656 24.140625 L 45.722656 14.382812 L 52.464844 14.382812 C 52.464844 14.382812 52.453125 24.140625 52.453125 24.140625 C 52.453125 24.34375 52.613281 24.507812 52.8125 24.507812 L 57.148438 24.507812 C 57.34375 24.507812 57.503906 24.34375 57.503906 24.140625 Z M 26.085938 4.375 C 26.085938 2.804688 24.839844 1.535156 23.300781 1.535156 C 21.761719 1.535156 20.511719 2.804688 20.511719 4.375 C 20.511719 5.941406 21.761719 7.214844 23.300781 7.214844 C 24.839844 7.214844 26.085938 5.941406 26.085938 4.375 Z M 25.746094 19.339844 L 25.746094 8.808594 C 25.746094 8.605469 25.585938 8.445312 25.386719 8.445312 L 21.074219 8.445312 C 20.878906 8.445312 20.699219 8.648438 20.699219 8.851562 L 20.699219 23.941406 C 20.699219 24.382812 20.976562 24.515625 21.332031 24.515625 L 25.214844 24.515625 C 25.640625 24.515625 25.746094 24.304688 25.746094 23.933594 Z M 74.035156 8.445312 L 69.742188 8.445312 C 69.546875 8.445312 69.386719 8.605469 69.386719 8.808594 L 69.386719 19.996094 C 69.386719 19.996094 68.292969 20.800781 66.746094 20.800781 C 65.199219 20.800781 64.789062 20.09375 64.789062 18.566406 L 64.789062 8.808594 C 64.789062 8.605469 64.628906 8.445312 64.433594 8.445312 L 60.074219 8.445312 C 59.878906 8.445312 59.71875 8.605469 59.71875 8.808594 L 59.71875 19.304688 C 59.71875 23.84375 62.226562 24.953125 65.679688 24.953125 C 68.507812 24.953125 70.792969 23.375 70.792969 23.375 C 70.792969 23.375 70.902344 24.207031 70.949219 24.304688 C 71 24.402344 71.125 24.503906 71.265625 24.503906 L 74.035156 24.492188 C 74.230469 24.492188 74.394531 24.328125 74.394531 24.125 L 74.390625 8.808594 C 74.390625 8.605469 74.230469 8.445312 74.035156 8.445312 Z M 83.921875 20.808594 C 82.433594 20.765625 81.421875 20.085938 81.421875 20.085938 L 81.421875 12.859375 C 81.421875 12.859375 82.421875 12.242188 83.640625 12.132812 C 85.1875 11.992188 86.675781 12.464844 86.675781 16.179688 C 86.675781 20.101562 86.003906 20.875 83.921875 20.808594 Z M 85.613281 7.953125 C 83.175781 7.953125 81.519531 9.050781 81.519531 9.050781 L 81.519531 1.324219 C 81.519531 1.121094 81.359375 0.960938 81.164062 0.960938 L 76.824219 0.960938 C 76.628906 0.960938 76.46875 1.121094 76.46875 1.324219 L 76.46875 24.140625 C 76.46875 24.34375 76.628906 24.507812 76.828125 24.507812 L 79.835938 24.507812 C 79.96875 24.507812 80.074219 24.4375 80.148438 24.3125 C 80.222656 24.191406 80.332031 23.261719 80.332031 23.261719 C 80.332031 23.261719 82.105469 24.957031 85.464844 24.957031 C 89.40625 24.957031 91.664062 22.941406 91.664062 15.90625 C 91.664062 8.875 88.054688 7.953125 85.613281 7.953125 Z M 38.191406 8.40625 L 34.949219 8.40625 C 34.949219 8.40625 34.941406 4.085938 34.941406 4.082031 C 34.941406 3.917969 34.859375 3.835938 34.671875 3.835938 L 30.25 3.835938 C 30.078125 3.835938 29.988281 3.914062 29.988281 4.082031 L 29.988281 8.546875 C 29.988281 8.546875 27.773438 9.085938 27.621094 9.128906 C 27.472656 9.171875 27.363281 9.3125 27.363281 9.476562 L 27.363281 12.285156 C 27.363281 12.484375 27.523438 12.648438 27.71875 12.648438 L 29.988281 12.648438 L 29.988281 19.398438 C 29.988281 24.414062 33.476562 24.90625 35.828125 24.90625 C 36.90625 24.90625 38.191406 24.558594 38.40625 24.480469 C 38.53125 24.429688 38.605469 24.296875 38.605469 24.152344 L 38.609375 21.066406 C 38.609375 20.863281 38.441406 20.699219 38.253906 20.699219 C 38.0625 20.699219 37.578125 20.777344 37.082031 20.777344 C 35.488281 20.777344 34.949219 20.03125 34.949219 19.0625 C 34.949219 18.097656 34.949219 12.648438 34.949219 12.648438 L 38.191406 12.648438 C 38.390625 12.648438 38.550781 12.484375 38.550781 12.285156 L 38.550781 8.769531 C 38.550781 8.566406 38.390625 8.40625 38.191406 8.40625 Z M 38.191406 8.40625 "/>
</g>
</svg>
