<?xml version="1.0" encoding="UTF-8"?>
<svg xmlns="http://www.w3.org/2000/svg" xmlns:xlink="http://www.w3.org/1999/xlink" width="274px" height="74px" viewBox="0 0 272 74" version="1.1">
<g id="surface1">
<path style=" stroke:none;fill-rule:nonzero;fill:rgb(6.666667%,6.666667%,5.882353%);fill-opacity:1;" d="M 52.433594 31.578125 L 29.554688 31.578125 C 28.964844 31.578125 28.488281 32.058594 28.488281 32.648438 L 28.488281 43.855469 C 28.488281 44.449219 28.964844 44.929688 29.554688 44.929688 L 38.480469 44.929688 L 38.480469 58.855469 C 38.480469 58.855469 36.476562 59.539062 30.9375 59.539062 C 24.402344 59.539062 15.269531 57.144531 15.269531 37.027344 C 15.269531 16.902344 24.777344 14.253906 33.703125 14.253906 C 41.429688 14.253906 44.757812 15.617188 46.875 16.273438 C 47.542969 16.480469 48.15625 15.816406 48.15625 15.222656 L 50.710938 4.394531 C 50.710938 4.117188 50.617188 3.785156 50.300781 3.558594 C 49.441406 2.941406 44.191406 0 30.9375 0 C 15.664062 0 0 6.511719 0 37.8125 C 0 69.113281 17.933594 73.777344 33.046875 73.777344 C 45.5625 73.777344 53.152344 68.417969 53.152344 68.417969 C 53.46875 68.242188 53.5 67.804688 53.5 67.605469 L 53.5 32.648438 C 53.5 32.058594 53.023438 31.578125 52.433594 31.578125 Z M 170.261719 3.917969 C 170.261719 3.320312 169.792969 2.839844 169.203125 2.839844 L 156.320312 2.839844 C 155.734375 2.839844 155.253906 3.320312 155.253906 3.917969 C 155.253906 3.921875 155.257812 28.863281 155.257812 28.863281 L 135.179688 28.863281 L 135.179688 3.917969 C 135.179688 3.320312 134.707031 2.839844 134.117188 2.839844 L 121.238281 2.839844 C 120.652344 2.839844 120.171875 3.320312 120.171875 3.917969 L 120.171875 71.460938 C 120.171875 72.058594 120.652344 72.542969 121.238281 72.542969 L 134.117188 72.542969 C 134.707031 72.542969 135.179688 72.058594 135.179688 71.460938 L 135.179688 42.570312 L 155.257812 42.570312 C 155.257812 42.570312 155.222656 71.457031 155.222656 71.460938 C 155.222656 72.058594 155.699219 72.542969 156.289062 72.542969 L 169.199219 72.542969 C 169.789062 72.542969 170.261719 72.058594 170.261719 71.460938 Z M 76.695312 12.949219 C 76.695312 8.300781 72.980469 4.542969 68.390625 4.542969 C 63.808594 4.542969 60.085938 8.300781 60.085938 12.949219 C 60.085938 17.589844 63.808594 21.355469 68.390625 21.355469 C 72.980469 21.355469 76.695312 17.589844 76.695312 12.949219 Z M 75.675781 57.25 L 75.675781 26.070312 C 75.675781 25.476562 75.199219 24.996094 74.609375 24.996094 L 61.769531 24.996094 C 61.179688 24.996094 60.652344 25.601562 60.652344 26.195312 L 60.652344 70.863281 C 60.652344 72.175781 61.46875 72.566406 62.527344 72.566406 L 74.09375 72.566406 C 75.363281 72.566406 75.675781 71.941406 75.675781 70.84375 Z M 219.492188 24.996094 L 206.710938 24.996094 C 206.125 24.996094 205.648438 25.476562 205.648438 26.074219 L 205.648438 59.191406 C 205.648438 59.191406 202.398438 61.574219 197.789062 61.574219 C 193.183594 61.574219 191.960938 59.476562 191.960938 54.957031 L 191.960938 26.074219 C 191.960938 25.476562 191.484375 24.996094 190.894531 24.996094 L 177.921875 24.996094 C 177.339844 24.996094 176.859375 25.476562 176.859375 26.074219 L 176.859375 57.144531 C 176.859375 70.574219 184.328125 73.859375 194.605469 73.859375 C 203.035156 73.859375 209.835938 69.195312 209.835938 69.195312 C 209.835938 69.195312 210.160156 71.652344 210.304688 71.945312 C 210.453125 72.234375 210.832031 72.53125 211.246094 72.53125 L 219.496094 72.492188 C 220.082031 72.492188 220.5625 72.007812 220.5625 71.414062 L 220.558594 26.074219 C 220.558594 25.476562 220.082031 24.996094 219.492188 24.996094 Z M 248.941406 61.597656 C 244.507812 61.464844 241.5 59.449219 241.5 59.449219 L 241.5 38.058594 C 241.5 38.058594 244.46875 36.234375 248.109375 35.910156 C 252.710938 35.496094 257.144531 36.890625 257.144531 47.894531 C 257.144531 59.496094 255.144531 61.785156 248.941406 61.597656 Z M 253.984375 23.542969 C 246.722656 23.542969 241.785156 26.789062 241.785156 26.789062 L 241.785156 3.917969 C 241.785156 3.320312 241.308594 2.839844 240.722656 2.839844 L 227.804688 2.839844 C 227.21875 2.839844 226.742188 3.320312 226.742188 3.917969 L 226.742188 71.460938 C 226.742188 72.058594 227.21875 72.542969 227.808594 72.542969 L 236.769531 72.542969 C 237.171875 72.542969 237.480469 72.332031 237.703125 71.96875 C 237.925781 71.605469 238.25 68.855469 238.25 68.855469 C 238.25 68.855469 243.53125 73.871094 253.53125 73.871094 C 265.269531 73.871094 272 67.902344 272 47.082031 C 272 26.265625 261.25 23.542969 253.984375 23.542969 Z M 112.746094 24.878906 L 103.085938 24.878906 C 103.085938 24.878906 103.070312 12.089844 103.070312 12.085938 C 103.070312 11.601562 102.820312 11.359375 102.261719 11.359375 L 89.097656 11.359375 C 88.585938 11.359375 88.308594 11.585938 88.308594 12.078125 L 88.308594 25.296875 C 88.308594 25.296875 81.710938 26.894531 81.265625 27.023438 C 80.820312 27.152344 80.492188 27.5625 80.492188 28.054688 L 80.492188 36.359375 C 80.492188 36.957031 80.96875 37.4375 81.558594 37.4375 L 88.308594 37.4375 L 88.308594 57.421875 C 88.308594 72.265625 98.699219 73.722656 105.710938 73.722656 C 108.914062 73.722656 112.746094 72.691406 113.378906 72.457031 C 113.757812 72.316406 113.980469 71.917969 113.980469 71.488281 L 113.992188 62.351562 C 113.992188 61.753906 113.492188 61.273438 112.925781 61.273438 C 112.363281 61.273438 110.921875 61.503906 109.4375 61.503906 C 104.691406 61.503906 103.085938 59.292969 103.085938 56.429688 C 103.085938 53.570312 103.085938 37.4375 103.085938 37.4375 L 112.746094 37.4375 C 113.335938 37.4375 113.8125 36.957031 113.8125 36.359375 L 113.8125 25.953125 C 113.8125 25.359375 113.335938 24.878906 112.746094 24.878906 Z M 112.746094 24.878906 "/>
</g>
</svg>
