<?xml version="1.0" encoding="UTF-8"?>
<svg xmlns="http://www.w3.org/2000/svg" xmlns:xlink="http://www.w3.org/1999/xlink" width="400px" height="685px" viewBox="0 0 400 685" version="1.1">
<g id="surface1">
<path style=" stroke:none;fill-rule:nonzero;fill:rgb(30.588235%,47.058824%,58.823529%);fill-opacity:1;" d="M 137.6875 365.824219 C 137.6875 365.824219 121.347656 375.738281 149.054688 378.570312 C 182.503906 382.808594 200.199219 382.09375 237.128906 375.027344 C 237.128906 375.027344 247.074219 381.398438 260.566406 386.347656 C 177.460938 421.738281 72.339844 384.230469 137.6875 365.824219 Z M 127.027344 319.839844 C 127.027344 319.839844 109.265625 333.28125 136.972656 336.113281 C 173.191406 339.636719 201.609375 340.351562 250.617188 330.453125 C 250.617188 330.453125 257.023438 337.535156 267.667969 341.078125 C 167.527344 370.789062 55.289062 343.890625 127.027344 319.839844 Z M 323.082031 400.5 C 323.082031 400.5 335.148438 410.414062 309.574219 418.195312 C 261.988281 432.347656 109.976562 436.601562 67.375 418.195312 C 52.460938 411.824219 80.863281 402.621094 90.097656 401.210938 C 99.335938 399.09375 104.300781 399.09375 104.300781 399.09375 C 87.964844 387.773438 -4.378906 422.449219 57.425781 432.425781 C 227.179688 460.019531 367.109375 420.390625 323.066406 400.578125 Z M 145.5 271.707031 C 145.5 271.707031 68.070312 290.113281 117.789062 296.484375 C 139.09375 299.300781 181.003906 298.605469 220.082031 295.773438 C 252.042969 292.945312 284.066406 287.28125 284.066406 287.28125 C 284.066406 287.28125 272.710938 292.234375 264.898438 297.183594 C 185.984375 317.722656 34.683594 308.519531 78.015625 287.296875 C 114.960938 269.605469 145.5 271.707031 145.5 271.707031 Z M 284.003906 348.839844 C 363.566406 307.808594 326.625 268.179688 301.050781 273.128906 C 294.648438 274.554688 291.816406 275.960938 291.816406 275.960938 C 291.816406 275.960938 293.9375 271.707031 298.917969 270.316406 C 349.351562 252.621094 389.125 323.382812 282.582031 350.976562 C 282.582031 350.976562 283.292969 350.265625 284.003906 348.855469 Z M 153.3125 460.636719 C 230.027344 465.601562 347.214844 457.804688 350.0625 421.722656 C 350.0625 421.722656 344.398438 435.875 286.851562 446.484375 C 221.503906 458.503906 140.515625 457.09375 92.945312 449.316406 C 92.945312 449.316406 102.878906 457.804688 153.3125 460.636719 Z M 153.3125 460.636719 "/>
<path style=" stroke:none;fill-rule:nonzero;fill:rgb(96.078431%,50.980392%,9.803922%);fill-opacity:1;" d="M 235.644531 38.203125 C 235.644531 38.203125 279.671875 82.777344 193.734375 150 C 124.828125 204.472656 178.09375 235.625 193.734375 270.996094 C 153.25 234.910156 124.132812 203.066406 144.011719 173.339844 C 173.207031 129.488281 253.449219 108.269531 235.644531 38.203125 Z M 212.902344 241.285156 C 233.507812 264.640625 207.238281 285.859375 207.238281 285.859375 C 207.238281 285.859375 259.792969 258.976562 235.644531 225.710938 C 213.628906 193.878906 196.582031 178.304688 288.921875 125.21875 C 288.921875 125.21875 143.300781 161.304688 212.917969 241.269531 Z M 212.902344 241.285156 "/>
<path style=" stroke:none;fill-rule:nonzero;fill:rgb(30.588235%,47.058824%,58.823529%);fill-opacity:1;" d="M 176.253906 612.121094 L 176.253906 542.796875 C 176.253906 525.101562 166.304688 513.070312 141.445312 513.070312 C 127.242188 513.070312 115.160156 516.613281 104.5 520.847656 L 108.042969 533.59375 C 115.855469 530.761719 125.804688 527.933594 136.464844 527.933594 C 149.96875 527.933594 156.359375 533.59375 156.359375 544.914062 L 156.359375 554.117188 L 149.257812 554.117188 C 115.160156 554.117188 99.519531 566.863281 99.519531 587.449219 C 99.519531 604.433594 110.179688 614.332031 129.363281 614.332031 C 141.429688 614.332031 150.664062 608.671875 159.1875 601.585938 L 160.613281 612.210938 L 176.253906 612.210938 Z M 156.359375 589.492188 C 149.257812 595.863281 141.460938 599.390625 134.34375 599.390625 C 125.109375 599.390625 119.429688 593.746094 119.429688 583.816406 C 119.429688 573.886719 125.109375 566.832031 147.851562 566.832031 L 156.359375 566.832031 Z M 243.023438 612.121094 L 218.164062 612.121094 L 188.320312 515.1875 L 209.636719 515.1875 L 228.109375 574.628906 L 232.363281 592.320312 C 241.601562 566.847656 248.699219 540.664062 251.546875 515.1875 L 272.863281 515.1875 C 267.1875 547.035156 257.226562 581.695312 243.023438 612.121094 Z M 358.089844 612.121094 L 358.089844 542.796875 C 358.089844 525.101562 348.144531 513.070312 323.28125 513.070312 C 309.082031 513.070312 297 516.613281 286.339844 520.847656 L 289.171875 533.59375 C 297.695312 530.761719 307.640625 527.933594 318.285156 527.933594 C 331.792969 527.933594 338.179688 533.59375 338.179688 544.914062 L 338.179688 554.117188 L 331.078125 554.117188 C 296.984375 554.117188 281.359375 566.863281 281.359375 587.449219 C 281.359375 604.433594 291.289062 614.332031 310.472656 614.332031 C 323.25 614.332031 332.488281 608.671875 341.011719 601.585938 L 342.433594 612.210938 L 358.074219 612.210938 Z M 338.195312 589.492188 C 331.09375 595.863281 323.28125 599.390625 316.183594 599.390625 C 306.929688 599.390625 301.269531 593.746094 301.269531 583.816406 C 301.269531 573.886719 306.929688 566.832031 329.6875 566.832031 L 338.195312 566.832031 Z M 77.523438 628.390625 C 71.859375 636.882812 63.320312 643.238281 52.675781 646.796875 L 43.425781 635.476562 C 50.542969 631.222656 57.640625 624.847656 60.472656 619.203125 C 63.320312 614.238281 64.03125 607.171875 64.03125 590.898438 L 64.03125 480.527344 L 85.335938 480.527344 L 85.335938 589.492188 C 85.335938 611.421875 83.214844 619.914062 77.523438 628.40625 Z M 77.523438 628.390625 "/>
</g>
</svg>
