<?xml version="1.0" encoding="UTF-8"?>
<svg xmlns="http://www.w3.org/2000/svg" xmlns:xlink="http://www.w3.org/1999/xlink" width="101px" height="173px" viewBox="0 0 101 172" version="1.1">
<g id="surface1">
<path style=" stroke:none;fill-rule:nonzero;fill:rgb(30.588235%,47.058824%,58.823529%);fill-opacity:1;" d="M 34.765625 91.890625 C 34.765625 91.890625 30.640625 94.394531 37.636719 95.109375 C 46.082031 96.179688 50.550781 96 59.875 94.214844 C 59.875 94.214844 62.386719 95.824219 65.792969 97.074219 C 44.808594 106.011719 18.265625 96.539062 34.765625 91.890625 Z M 32.074219 80.277344 C 32.074219 80.277344 27.589844 83.671875 34.585938 84.386719 C 43.730469 85.277344 50.90625 85.457031 63.28125 82.957031 C 63.28125 82.957031 64.898438 84.746094 67.585938 85.640625 C 42.300781 93.144531 13.960938 86.351562 32.074219 80.277344 Z M 81.578125 100.648438 C 81.578125 100.648438 84.625 103.152344 78.167969 105.117188 C 66.152344 108.691406 27.769531 109.765625 17.011719 105.117188 C 13.246094 103.507812 20.417969 101.183594 22.75 100.828125 C 25.082031 100.292969 26.335938 100.292969 26.335938 100.292969 C 22.210938 97.433594 -1.105469 106.191406 14.5 108.710938 C 57.363281 115.679688 92.695312 105.671875 81.574219 100.667969 Z M 36.738281 68.121094 C 36.738281 68.121094 17.1875 72.769531 29.742188 74.378906 C 35.121094 75.089844 45.703125 74.914062 55.570312 74.199219 C 63.640625 73.484375 71.726562 72.054688 71.726562 72.054688 C 71.726562 72.054688 68.859375 73.304688 66.886719 74.554688 C 46.960938 79.742188 8.757812 77.417969 19.699219 72.058594 C 29.027344 67.589844 36.738281 68.121094 36.738281 68.121094 Z M 71.710938 87.601562 C 91.800781 77.238281 82.472656 67.230469 76.015625 68.480469 C 74.398438 68.839844 73.683594 69.195312 73.683594 69.195312 C 73.683594 69.195312 74.21875 68.121094 75.476562 67.769531 C 88.210938 63.300781 98.253906 81.171875 71.351562 88.140625 C 71.351562 88.140625 71.53125 87.960938 71.710938 87.605469 Z M 38.710938 115.835938 C 58.082031 117.089844 87.671875 115.121094 88.390625 106.007812 C 88.390625 106.007812 86.960938 109.582031 72.429688 112.261719 C 55.929688 115.296875 35.480469 114.941406 23.46875 112.976562 C 23.46875 112.976562 25.976562 115.121094 38.710938 115.835938 Z M 38.710938 115.835938 "/>
<path style=" stroke:none;fill-rule:nonzero;fill:rgb(96.078431%,50.980392%,9.803922%);fill-opacity:1;" d="M 59.5 9.148438 C 59.5 9.148438 70.617188 20.40625 48.917969 37.382812 C 31.519531 51.140625 44.96875 59.007812 48.917969 67.941406 C 38.695312 58.828125 31.34375 50.785156 36.363281 43.277344 C 43.734375 32.203125 63.996094 26.84375 59.5 9.148438 Z M 53.757812 60.4375 C 58.960938 66.335938 52.328125 71.695312 52.328125 71.695312 C 52.328125 71.695312 65.597656 64.90625 59.5 56.503906 C 53.941406 48.464844 49.636719 44.53125 72.953125 31.125 C 72.953125 31.125 36.183594 40.238281 53.761719 60.433594 Z M 53.757812 60.4375 "/>
<path style=" stroke:none;fill-rule:nonzero;fill:rgb(30.588235%,47.058824%,58.823529%);fill-opacity:1;" d="M 44.503906 154.09375 L 44.503906 136.585938 C 44.503906 132.117188 41.992188 129.078125 35.714844 129.078125 C 32.128906 129.078125 29.078125 129.972656 26.386719 131.042969 L 27.28125 134.261719 C 29.253906 133.546875 31.765625 132.832031 34.457031 132.832031 C 37.867188 132.832031 39.480469 134.261719 39.480469 137.121094 L 39.480469 139.445312 L 37.6875 139.445312 C 29.078125 139.445312 25.128906 142.664062 25.128906 147.863281 C 25.128906 152.152344 27.820312 154.652344 32.664062 154.652344 C 35.710938 154.652344 38.042969 153.222656 40.195312 151.433594 L 40.554688 154.117188 L 44.503906 154.117188 Z M 39.480469 148.378906 C 37.6875 149.988281 35.71875 150.878906 33.921875 150.878906 C 31.589844 150.878906 30.15625 149.453125 30.15625 146.945312 C 30.15625 144.4375 31.589844 142.65625 37.332031 142.65625 L 39.480469 142.65625 Z M 61.363281 154.09375 L 55.085938 154.09375 L 47.550781 129.613281 L 52.933594 129.613281 L 57.597656 144.625 L 58.671875 149.09375 C 61.003906 142.660156 62.796875 136.046875 63.515625 129.613281 L 68.898438 129.613281 C 67.464844 137.65625 64.949219 146.410156 61.363281 154.09375 Z M 90.417969 154.09375 L 90.417969 136.585938 C 90.417969 132.117188 87.90625 129.078125 81.628906 129.078125 C 78.042969 129.078125 74.992188 129.972656 72.300781 131.042969 L 73.015625 134.261719 C 75.167969 133.546875 77.679688 132.832031 80.367188 132.832031 C 83.777344 132.832031 85.390625 134.261719 85.390625 137.121094 L 85.390625 139.445312 L 83.597656 139.445312 C 74.988281 139.445312 71.042969 142.664062 71.042969 147.863281 C 71.042969 152.152344 73.550781 154.652344 78.394531 154.652344 C 81.621094 154.652344 83.953125 153.222656 86.105469 151.433594 L 86.464844 154.117188 L 90.414062 154.117188 Z M 85.394531 148.378906 C 83.601562 149.988281 81.628906 150.878906 79.835938 150.878906 C 77.5 150.878906 76.070312 149.453125 76.070312 146.945312 C 76.070312 144.4375 77.5 142.65625 83.246094 142.65625 L 85.394531 142.65625 Z M 19.574219 158.203125 C 18.144531 160.347656 15.988281 161.953125 13.300781 162.851562 L 10.964844 159.992188 C 12.761719 158.917969 14.554688 157.308594 15.269531 155.882812 C 15.988281 154.628906 16.167969 152.84375 16.167969 148.734375 L 16.167969 120.859375 L 21.546875 120.859375 L 21.546875 148.378906 C 21.546875 153.917969 21.011719 156.0625 19.574219 158.207031 Z M 19.574219 158.203125 "/>
</g>
</svg>
