<?xml version="1.0" standalone="no"?>
<!DOCTYPE svg PUBLIC "-//W3C//DTD SVG 20010904//EN"
 "http://www.w3.org/TR/2001/REC-SVG-20010904/DTD/svg10.dtd">
<svg version="1.0" xmlns="http://www.w3.org/2000/svg"
 width="128.000000pt" height="128.000000pt" viewBox="0 0 128.000000 128.000000"
 preserveAspectRatio="xMidYMid meet">

<g transform="translate(0.000000,128.000000) scale(0.100000,-0.100000)"
fill="#000000" stroke="none">
<path d="M732 921 c-29 -10 -63 -27 -75 -38 -12 -12 -33 -24 -46 -28 -34 -10
-131 -22 -127 -16 2 3 1 24 -3 46 -5 34 -10 40 -31 41 -22 2 -203 -27 -269
-42 -24 -5 -24 -5 -7 -104 2 -14 7 -50 11 -80 4 -30 12 -60 17 -67 5 -7 7 -17
3 -23 -10 -16 16 -42 34 -35 9 4 40 9 69 12 45 4 52 2 52 -14 0 -12 -18 -27
-52 -43 -30 -14 -59 -37 -68 -52 -14 -26 -13 -29 6 -48 55 -56 289 -18 307 49
3 12 22 21 65 31 33 7 64 10 70 6 5 -3 12 -19 15 -36 6 -29 9 -30 49 -26 53 5
246 35 272 43 16 4 17 12 11 72 -4 36 -11 71 -16 77 -5 6 -7 13 -4 16 2 2 -1
33 -9 69 -14 70 -30 81 -84 60 -15 -5 -42 -13 -59 -16 -30 -6 -33 -4 -33 17 0
19 9 26 61 42 40 12 66 27 77 44 15 23 15 25 -7 43 -31 26 -155 26 -229 0z
m183 -1 c11 -5 16 -9 12 -9 -4 -1 -60 -10 -123 -22 -118 -21 -144 -20 -102 2
56 31 172 46 213 29z m-460 -40 c0 -23 -5 -25 -129 -47 -102 -18 -132 -20
-138 -10 -21 32 -3 41 117 63 143 26 150 26 150 -6z m495 5 c0 -12 -84 -45
-139 -54 -60 -10 -127 -5 -136 9 -3 5 28 14 67 20 40 7 91 16 113 20 48 9 95
12 95 5z m-467 -142 c9 -53 15 -98 14 -99 -4 -4 -242 -44 -259 -44 -14 0 -18
15 -42 185 -1 8 197 50 255 54 13 1 19 -20 32 -96z m252 70 c106 -7 111 -45 8
-58 -93 -11 -89 -3 -67 -130 14 -80 15 -79 -48 -89 -47 -7 -65 -6 -95 8 -21 9
-47 16 -58 15 -54 -5 -83 1 -88 21 -4 16 1 21 32 26 93 16 96 18 95 55 -1 19
-5 59 -9 90 l-7 56 53 10 c30 6 68 9 84 6 17 -3 61 -7 100 -10z m247 -63 c3
-21 0 -31 -11 -34 -42 -13 -266 -46 -278 -42 -7 3 -13 16 -13 30 0 23 6 25 93
40 50 9 112 21 137 25 68 13 67 13 72 -19z m13 -72 c20 -93 26 -151 15 -158
-15 -9 -280 -53 -286 -47 -7 7 -34 170 -29 175 5 5 244 49 277 51 11 1 20 -8
23 -21z m-472 -157 c12 -12 2 -14 -133 -36 -52 -9 -103 -18 -112 -21 -26 -8
-22 13 7 32 59 38 209 54 238 25z m7 -40 c0 -11 -52 -35 -105 -50 -52 -14 -97
-14 -132 0 -26 11 -18 14 92 34 144 27 145 27 145 16z"/>
<path d="M310 275 c0 -51 3 -65 15 -65 11 0 15 11 16 38 0 34 1 35 11 15 6
-13 16 -23 23 -23 7 0 17 10 23 23 10 20 11 19 11 -15 1 -31 5 -38 21 -38 18
0 20 7 20 65 0 58 -2 65 -20 65 -12 0 -26 -12 -36 -32 l-17 -33 -15 33 c-9 19
-23 32 -34 32 -16 0 -18 -9 -18 -65z"/>
<path d="M480 275 l0 -65 50 0 c55 0 69 17 18 22 -41 4 -45 32 -5 36 15 2 27
7 27 12 0 5 -12 10 -27 12 -39 4 -35 22 5 26 51 5 37 22 -18 22 l-50 0 0 -65z"/>
<path d="M610 275 c0 -51 3 -65 15 -65 9 0 15 10 16 23 1 12 2 41 3 65 2 35
-1 42 -16 42 -15 0 -18 -9 -18 -65z"/>
<path d="M670 326 c0 -8 4 -18 10 -21 6 -4 5 -13 -2 -25 -16 -26 4 -70 32 -70
19 0 20 1 5 24 -14 20 -14 28 -3 45 10 16 10 26 2 39 -14 22 -44 28 -44 8z"/>
<path d="M750 330 c0 -5 5 -10 10 -10 6 0 10 -20 10 -45 0 -25 -4 -45 -10 -45
-5 0 -10 -4 -10 -10 0 -5 16 -10 35 -10 19 0 35 5 35 10 0 6 -4 10 -10 10 -5
0 -10 18 -10 39 0 22 5 43 10 46 21 13 9 25 -25 25 -19 0 -35 -4 -35 -10z"/>
<path d="M868 329 c-21 -12 -24 -42 -5 -56 6 -6 24 -13 40 -17 43 -10 33 -29
-13 -23 -29 4 -40 2 -40 -8 0 -22 57 -29 86 -10 36 23 29 55 -16 70 -42 14
-38 31 8 28 23 -2 32 1 29 10 -5 15 -67 20 -89 6z"/>
<path d="M990 275 l0 -65 45 0 c25 0 45 5 45 10 0 6 -14 10 -31 10 -24 0 -30
4 -27 18 2 10 14 18 31 20 37 4 35 22 -3 22 -16 0 -30 5 -30 10 0 6 14 10 30
10 20 0 30 5 30 15 0 11 -12 15 -45 15 l-45 0 0 -65z"/>
</g>
</svg>
