<?xml version="1.0" encoding="UTF-8"?>
<svg xmlns="http://www.w3.org/2000/svg" xmlns:xlink="http://www.w3.org/1999/xlink" width="609px" height="472px" viewBox="0 0 609 472" version="1.1">
<defs>
<linearGradient id="linear0" gradientUnits="userSpaceOnUse" x1="0" y1="0" x2="1" y2="1" gradientTransform="matrix(606.554688,0,0,406.320313,0.761719,2.523438)">
<stop offset="0" style="stop-color:rgb(79.607843%,80.784314%,81.568627%);stop-opacity:1;"/>
<stop offset="1" style="stop-color:rgb(51.764706%,51.372549%,54.509804%);stop-opacity:1;"/>
</linearGradient>
<linearGradient id="linear1" gradientUnits="userSpaceOnUse" x1="0" y1="0" x2="1" y2="1" gradientTransform="matrix(334.785156,0,0,341.695312,250.664063,128.675781)">
<stop offset="0" style="stop-color:rgb(15.294118%,42.745098%,76.470588%);stop-opacity:1;"/>
<stop offset="1" style="stop-color:rgb(8.627451%,36.078431%,66.666667%);stop-opacity:1;"/>
</linearGradient>
</defs>
<g id="surface1">
<path style=" stroke:none;fill-rule:evenodd;fill:url(#linear0);" d="M 304.039062 408.84375 C 136.542969 408.84375 0.761719 317.886719 0.761719 205.683594 C 0.761719 93.480469 136.542969 2.523438 304.039062 2.523438 C 471.535156 2.523438 607.316406 93.480469 607.316406 205.683594 C 607.316406 317.886719 471.535156 408.84375 304.039062 408.84375 Z M 350.460938 81.953125 C 223.152344 81.953125 119.945312 144.136719 119.945312 220.84375 C 119.945312 297.546875 223.152344 359.730469 350.460938 359.730469 C 477.773438 359.730469 571.726562 317.21875 571.726562 220.84375 C 571.726562 124.496094 477.773438 81.953125 350.460938 81.953125 Z M 350.460938 81.953125 "/>
<path style=" stroke:none;fill-rule:evenodd;fill:url(#linear1);" d="M 462.636719 317.191406 C 462.636719 317.191406 480.992188 322.730469 491.65625 328.128906 C 495.359375 330 501.761719 333.738281 506.378906 338.644531 C 510.902344 343.449219 513.109375 348.320312 513.109375 348.320312 L 585.449219 470.316406 L 468.527344 470.371094 L 413.851562 367.671875 C 413.851562 367.671875 402.65625 348.429688 395.765625 342.851562 C 390.019531 338.199219 387.570312 336.542969 381.886719 336.542969 C 377.929688 336.542969 354.105469 336.542969 354.105469 336.542969 L 354.128906 470.296875 L 250.664062 470.339844 L 250.664062 128.675781 L 458.433594 128.675781 C 458.433594 128.675781 553.0625 130.382812 553.0625 220.433594 C 553.0625 310.488281 462.636719 317.191406 462.636719 317.191406 Z M 417.636719 202.785156 L 355 202.746094 L 354.96875 260.84375 L 417.636719 260.820312 C 417.636719 260.820312 446.65625 260.730469 446.65625 231.269531 C 446.65625 201.214844 417.636719 202.785156 417.636719 202.785156 Z M 417.636719 202.785156 "/>
</g>
</svg>
